<?xml version="1.0" encoding="UTF-8"?>
<svg id="Layer_1" xmlns="http://www.w3.org/2000/svg" viewBox="0 0 999.37 999.43">
  <defs>
    <style>
      .cls-1 {
        fill: #900;
      }
    </style>
  </defs>
  <g>
    <path class="cls-1" d="M58.61,739c40.91,58.86,100.62,103.79,170.63,125.96,3.43-3.2,6.84-6.42,10.18-9.72,8.17-8.08,15.98-16.51,23.96-24.78,6.2-6.42,12.52-12.75,18.61-19.29,6.1-6.54,11.97-13.29,17.95-19.92,4.37-4.84,8.78-9.64,13.16-14.47,3.2-3.54,6.43-7.04,9.58-10.62,8.54-9.71,17.54-19.07,25.43-29.29,6.17-7.99,14.02-14.03,21.08-20.97,4.67-4.58,9.06-9.44,13.75-13.99,4.69-4.56,9.62-8.86,14.42-13.32,3.18-2.96,6.39-5.91,9.46-9,6.85-6.89,13.52-13.97,20.44-20.79,2.78-2.73,5.6-5.42,8.43-8.12,1.76-3.55,3.48-7.11,5.24-10.67,2.1-4.26,4.22-8.51,6.35-12.75,4.79-9.53,9.54-19.07,14.4-28.57,4.23-8.26,8.74-16.38,12.86-24.69,4.66-9.38,8.99-18.92,13.53-28.35,3.18-6.61,6.48-13.15,9.71-19.73,5.65-11.57,11.28-23.16,16.93-34.73,4.62-9.45,9.26-18.86,13.85-28.33,9.54-19.67,19.05-39.35,28.56-59.02,9.27-19.18,18.5-38.38,27.82-57.53-58.8-73.3-148.45-120.99-249.75-123.03C153.75,219.59,3.73,363.69.07,545.09c-1.42,70.62,19.55,136.48,56.39,190.8,1.01.93,1.7,1.96,2.15,3.11Z"/>
    <path class="cls-1" d="M298.63,858.43c-2.14,1.75-4.28,3.51-6.41,5.28-5.04,4.17-10.05,8.38-15.13,12.51.62.1,1.23.21,1.85.3,6.82-5.74,13.4-11.75,19.68-18.08Z"/>
    <path class="cls-1" d="M569.61,435.12c-3.11,8.41-6.2,16.83-9.3,25.25,1.5-2.67,2.99-5.34,4.49-8,7.31-13.03,14.69-26.02,21.83-39.15,6.66-12.2,13.26-24.43,19.87-36.66-3.12-4.95-6.37-9.8-9.74-14.57-4.16,11.17-8.27,22.35-12.43,33.52-4.92,13.2-9.83,26.4-14.72,39.62Z"/>
    <path class="cls-1" d="M635.76,454.93c1.74-1.64,3.52-3.24,5.26-4.87-.54-1.66-1.08-3.33-1.64-4.98-2.57,4.59-5.14,9.18-7.73,13.77,1.37-1.3,2.73-2.61,4.11-3.91Z"/>
    <path class="cls-1" d="M601.93,521.09c-6.59,7.99-13.27,15.91-19.94,23.84-.92,1.51-1.85,3.02-2.75,4.55-3.37,5.81-6.58,11.75-9.89,17.61-2.15,3.8-4.27,7.62-6.55,11.35-3.84,6.27-7.87,12.43-11.68,18.72-2.88,4.74-5.4,9.69-8.31,14.41-4.38,7.09-8.89,14.12-13.52,21.06-3.95,5.93-8.14,11.71-12.22,17.55-2.96,4.24-5.87,8.52-8.91,12.7-6.43,8.86-12.98,17.64-19.41,26.5-2.16,2.98-4.29,5.97-6.43,8.97-3.94,7.25-7.98,14.47-11.97,21.71-3.16,5.73-6.13,11.59-9.52,17.19-3.61,5.94-7.57,11.69-11.46,17.47-3.14,4.67-6.36,9.28-9.58,13.9-.4.77-.81,1.53-1.22,2.3-2.32,4.38-4.83,8.66-7.23,12.99-6.15,11.09-12.09,22.31-18.47,33.28-6.88,11.82-14.17,23.41-21.27,35.1-4.53,7.47-8.95,15-13.61,22.39-.43.69-.89,1.36-1.32,2.05,155.92-22.89,277.07-155.62,280.34-318.4.64-31.4-3.16-61.85-10.8-90.77-1.9,2.17-3.83,4.33-5.71,6.53-13.21,15.37-25.67,31.37-38.57,47Z"/>
  </g>
  <g>
    <path class="cls-1" d="M607.55,333.45c9.78-25.25,19.63-50.47,30.06-75.44,5.3-12.66,10.3-25.67,19.75-36.28-2.6,1.48-5.32,2.98-7.01,5.24-4.18,5.57-8.22,11.3-11.7,17.33-7.38,12.74-14.54,25.62-21.48,38.62-7.98,14.92-15.86,29.9-23.35,45.08-3.01,6.08-5.94,12.2-8.91,18.3,4.1,5.11,8.06,10.35,11.85,15.7,3.54-9.53,7.11-19.05,10.78-28.54Z"/>
    <path class="cls-1" d="M680.9,429.14c13.16-14.5,26.66-28.67,42.3-40.57,5.12-3.89,10.27-8.42,18.34-5.27-2.98-4.62-6.85-3.79-10-2.86-4.52,1.35-8.99,3.3-13.06,5.69-14.5,8.52-27.54,19.11-40.16,30.13-12.63,11.03-25.04,22.32-37.29,33.78,1.88,5.77,3.62,11.61,5.18,17.52,11.38-12.97,23.11-25.64,34.7-38.43Z"/>
    <path class="cls-1" d="M996.97,3.5c-9.54-3.84-19.5-4-29.48-2.93-10.23,1.1-19.69,4.97-28.94,9.29-19.39,9.05-35.74,22.52-51.91,36.18-24.64,20.82-45.39,45.42-66.29,69.8-13.73,16.02-26.67,32.72-39.62,49.39-12.92,16.65-25.62,33.47-38,50.53-12.72,17.53-24.94,35.43-37.39,53.18-7.98,11.39-16.04,22.73-23.93,34.18-7.33,10.63-14.44,21.41-21.7,32.08-5.55,8.16-11.16,16.27-16.72,24.42,3.71-8.38,7.45-16.76,11.14-25.14,11.09-25.11,22.06-50.27,33.22-75.35,6.56-14.72,13.24-29.39,20.16-43.94,8.21-17.27,16.48-34.52,25.24-51.51,4.28-8.27,9.34-16.23,14.82-23.77,4.65-6.41,6.26-5.91,9.23,1.18.1.21.43.33.86.64.02-.78.14-1.38.02-1.93-1.61-7.4-4.93-8.56-10.54-3.53-2.8,2.52-5.52,5.21-7.81,8.18-4.01,5.21-7.99,10.49-11.43,16.09-11.15,18.18-22.36,36.35-32.99,54.85-10.33,17.96-19.94,36.33-29.94,54.48-10.18,18.46-20.54,36.81-30.64,55.32-9.33,17.1-18.59,34.23-27.86,51.36,13.46,21.33,24.56,44.28,32.88,68.52,3.66-6.54,7.34-13.07,11-19.6,4.18-7.45,8.27-14.94,12.51-22.36,3.84-6.73,7.82-13.39,11.73-20.08,5.11-8.76,10.26-17.5,15.3-26.29,5.53-9.64,10.92-19.37,16.48-29,5.78-10,11.67-19.94,17.54-29.88,5.67-9.58,11.29-19.19,17.12-28.67,6.05-9.83,12.34-19.52,18.49-29.28,12.07-19.13,23.96-38.37,36.24-57.36,8.41-13.02,17.21-25.8,26.12-38.49,8.69-12.39,17.23-24.95,26.76-36.69,15.33-18.89,30.66-37.8,47.81-55.16,14.65-14.83,30.28-28.34,48.44-38.68,12.67-7.22,26.09-12.06,41.02-10.7,4.27.39,8.49,1.37,13.43,2.19-1.17-.75-1.74-1.26-2.4-1.52Z"/>
    <path class="cls-1" d="M278.95,876.51c-6.16,5.18-12.52,10.14-19.09,14.86-3.56,2.56-7.26,4.82-11.05,6.86,8.16-6.04,16.15-12.31,24.12-18.62,1.41-1.12,2.78-2.27,4.17-3.4-16.4-2.58-32.38-6.36-47.86-11.26-4.12,3.84-8.28,7.65-12.45,11.44-11.59,10.52-23.53,20.61-36.16,29.96-5.68,4.19-11.54,7.96-17.6,11.29-1.63-.12-3.27-.27-4.92-.47-4.69-7.32-9.01-14.87-13.23-22.48-6.09-10.96-12.18-21.98-17.27-33.43-6.72-15.08-12.46-30.62-18.61-45.95-1.96-4.86-3.92-9.74-5.87-14.61-.3.1-.59.19-.89.28,1.43,6.36,2.71,12.76,4.34,19.07,5.13,19.86,10.67,39.61,18.2,58.72,4.37,11.1,8.66,22.26,13.72,33.04.18.4.4.78.59,1.18-12.39-4.12-23.38-10.82-33.14-20.15-11.75-11.25-19.52-25.06-25.91-39.78-3.18-7.33-5.83-14.79-8.12-22.36,1.36-10.2,3.12-20.32,5.16-30.42,1.3-6.43,2.66-12.84,3.99-19.27-1.93,2.12-3,4.45-3.88,6.85-3.41,9.35-6.48,18.8-9.16,28.35-2.54-10.83-4.41-21.83-5.76-32.94-1.63-13.43-2.12-27-2.91-40.51-.08-1.39-.31-2.63-.75-3.76-.72-1.03-1.44-2.06-2.15-3.11-.45-.41-.94-.82-1.53-1.18-1.53,13.96-1.88,27.44-1.26,41.03.7,15.34,1.62,30.61,4,45.78,1.1,6.97,2.48,13.85,4.18,20.64-.77,4.01-1.5,8.03-2.11,12.08-.02.1-.03.2-.04.3-9.71-27.65-15.15-56.47-17.91-85.93-1.22-13.05-1.97-26.15-2.93-39.22-1.87,21.41-2.52,42.94-.87,64.49,1.71,22.24,4.41,44.27,9.93,66.03,2.53,9.99,5.71,19.68,9.55,29.07.32,6.86,1.21,13.71,2.88,20.53,5.08,20.81,16.52,36.09,37.86,42.36,1.97.58,3.95,1.05,5.93,1.44,4.72,3.46,9.74,6.61,15.11,9.4,17.54,9.08,36.39,12.33,55.74,12.97,2.15.07,4.29.06,6.43.01,15.79,15.05,34.25,24.26,57.56,23.72,16.22-.38,30.44-5.85,43.77-14.08,10.3-6.36,19.63-14.08,28.27-22.7,11.99-11.94,22.83-24.82,32.89-38.36,7.23-9.73,14.07-19.75,20.95-29.73,4.04-5.86,7.97-11.8,11.8-17.79-17.84,2.62-36.13,3.83-54.75,3.45-14.58-.29-28.92-1.55-42.97-3.67ZM112.25,932.42c-18.58-12.55-31.45-29.97-40.94-49.77-.33-.68-.63-1.37-.95-2.05-.51-4.95-.81-9.9-.9-14.88,1.73,4.28,3.63,8.51,5.76,12.67,8.85,17.27,20.46,32.27,36.57,43.47,5.06,3.52,10.31,6.48,15.7,8.95-5.01,1.08-10.08,1.78-15.24,1.6ZM182.34,947.9c-1.62-1.65-3.2-3.33-4.76-5.06.93-.47,1.85-.95,2.77-1.43,15.9.04,31.61-2.04,47.21-5.46-9.88,4.28-20.18,7.24-30.76,9.5-4.82,1.02-9.63,1.85-14.47,2.45ZM252.81,968.24c-8.38,4.15-17.27,6.65-26.59,5.35-3.09-.44-6.08-1.15-9-2.07,20.2-3.76,38.8-11.09,56.07-22.11,4.09-2.61,8.08-5.39,12.02-8.23-9.24,10.92-19.46,20.59-32.49,27.06Z"/>
  </g>
</svg>